# xmcd
#
# Track frame offsets: 
#        150
#        11858
#        20812
#        34482
#        46611
#        57696
#        67330
#        77104
#        90106
#        102223
#        114736
#        125789
#        138276
#        148122
#        158502
#        168530
#        188121
#        198824
#        210004
#        221135
#        231526
#        244149
#
# Disc length: 3406 seconds
#
# Revision: 1
# Processed by: cddbd v1.5.2PL0 Copyright (c) Steve Scherf et al.
# Submitted via: ExactAudioCopy v0.90b4
#
DISCID=440d4c16
DTITLE=Brenton Wood - Baby, You Got It! The 1960s Anthology [CD2]
DYEAR=2006
DGENRE=R&B
TTITLE0=The Oogum Boogum Song
TTITLE1=Baby You Got It
TTITLE2=Me And You
TTITLE3=Cross The Bridge
TTITLE4=It's Just A Game, Love
TTITLE5=Two-Time Loser
TTITLE6=Mr. Schemer
TTITLE7=Who But A Fool
TTITLE8=Some Got It, Some Don't
TTITLE9=I Like The Way You Love Me
TTITLE10=Best Thing I Ever Had
TTITLE11=Trouble
TTITLE12=Catch You On The Rebound
TTITLE13=Sweet Molly Malone
TTITLE14=Where Were You
TTITLE15=Need Your Love So Bad
TTITLE16=Give It Up
TTITLE17=A Little Bit Of Love
TTITLE18=Sad Little Song (La Tee Da)
TTITLE19=Birdman
TTITLE20=Darlin'
TTITLE21=Too Much Too Soon
EXTD=
EXTT0=
EXTT1=
EXTT2=
EXTT3=
EXTT4=
EXTT5=
EXTT6=
EXTT7=
EXTT8=
EXTT9=
EXTT10=
EXTT11=
EXTT12=
EXTT13=
EXTT14=
EXTT15=
EXTT16=
EXTT17=
EXTT18=
EXTT19=
EXTT20=
EXTT21=
PLAYORDER=
